<svg width="178" height="33" viewBox="0 0 178 33" fill="none" xmlns="http://www.w3.org/2000/svg">
<path d="M6.71576 17.4612H18.1583C17.9644 15.8744 17.5412 14.6579 16.8889 13.794C15.972 12.5774 14.5263 11.9603 12.5693 11.9603C10.3477 11.9603 8.69043 12.6479 7.61494 14.0232C6.92733 14.9047 6.45129 16.0507 6.20446 17.4612C6.06341 18.237 5.99288 19.1009 5.99288 20.053C5.99288 20.5819 6.02815 21.0932 6.06341 21.5692C6.23972 23.3147 6.75102 24.7252 7.61494 25.7831C8.69043 27.1406 10.2772 27.8106 12.3401 27.8106C13.68 27.8106 14.826 27.5109 15.7957 26.9114C16.7654 26.312 17.5059 25.4657 18.0349 24.3373L23.3947 25.9594C22.4603 28.1456 21.0321 29.8558 19.0751 31.0724C17.1357 32.2889 14.9847 32.906 12.6398 32.906C10.1714 32.906 8.00282 32.3771 6.15156 31.3016C4.28268 30.2437 2.83693 28.7451 1.7967 26.8585C0.756469 24.972 0.227539 22.7858 0.227539 20.3174C0.227539 17.6551 0.738837 15.3455 1.76144 13.3884C2.78404 11.4314 4.21215 9.91513 6.02815 8.82201C7.84414 7.74651 9.94223 7.19995 12.3401 7.19995C14.8613 7.19995 17.0123 7.78177 18.7754 8.96305C20.5385 10.1443 21.8608 11.8016 22.7071 13.9526C23.571 16.1036 23.8884 18.6249 23.6768 21.5516H8.84911L6.71576 17.4612Z" fill="black"/>
<path d="M38.1167 32.8885C35.1194 32.8885 32.6687 32.2185 30.7998 30.861C28.9133 29.5034 27.7849 27.6169 27.3794 25.1661L32.9155 24.3022C33.1976 25.5011 33.8323 26.4532 34.8021 27.1408C35.7718 27.8284 37.0059 28.181 38.5046 28.181C39.8093 28.181 40.8142 27.9166 41.5371 27.4053C42.2423 26.894 42.6126 26.1711 42.6126 25.2719C42.6126 24.7077 42.4892 24.267 42.2247 23.932C41.9603 23.597 41.3784 23.262 40.4969 22.9446C39.6153 22.6273 38.2577 22.2394 36.4241 21.7457C34.3789 21.1992 32.7569 20.6173 31.5579 20.0003C30.359 19.3832 29.4951 18.6427 28.9662 17.7787C28.4373 16.9148 28.1728 15.8922 28.1728 14.6757C28.1728 13.1594 28.5783 11.8371 29.3717 10.7087C30.1651 9.58031 31.2759 8.7164 32.704 8.09931C34.1321 7.48222 35.807 7.1825 37.7464 7.1825C39.633 7.1825 41.3255 7.48222 42.7889 8.06405C44.2523 8.64587 45.4336 9.49216 46.3327 10.5677C47.2319 11.6431 47.7961 12.9126 48.0077 14.376L42.4716 15.3633C42.3305 14.3231 41.8721 13.512 41.0611 12.9126C40.25 12.3131 39.1922 11.9781 37.8522 11.89C36.5828 11.8195 35.5426 12.0134 34.7668 12.4718C33.991 12.9302 33.6031 13.5649 33.6031 14.3936C33.6031 14.852 33.7618 15.2575 34.0792 15.5925C34.3965 15.9275 35.0313 16.2625 35.9833 16.5798C36.9354 16.9148 38.3635 17.3203 40.25 17.7964C42.1895 18.29 43.741 18.8542 44.9046 19.4889C46.0683 20.1237 46.9146 20.8818 47.4259 21.781C47.9372 22.6625 48.2016 23.738 48.2016 25.0075C48.2016 27.4582 47.3201 29.38 45.5393 30.7728C43.7234 32.2009 41.255 32.8885 38.1167 32.8885Z" fill="black"/>
<path d="M75.459 18.6249V32.2185H69.9581V20.4938C69.9581 19.7357 69.9052 18.8718 69.7994 17.9373C69.6936 17.0029 69.4468 16.1037 69.0765 15.2398C68.6887 14.3759 68.1245 13.6706 67.3663 13.1064C66.6082 12.5599 65.5856 12.2778 64.2985 12.2778C63.6109 12.2778 62.9233 12.3836 62.2357 12.6128C61.5657 12.842 60.9486 13.2298 60.4021 13.7764C59.8555 14.323 59.4147 15.0811 59.0798 16.0332C58.7448 16.9853 58.5861 18.2018 58.5861 19.7004V32.2008H53.0852V3.55042L57.9337 0.905762V10.5852C58.5508 9.84469 59.2737 9.20997 60.12 8.68104C61.6891 7.69371 63.6109 7.18241 65.8853 7.18241C67.6837 7.18241 69.1823 7.48213 70.346 8.08159C71.5273 8.68104 72.4441 9.45681 73.1493 10.3736C73.8369 11.3081 74.3482 12.2954 74.6832 13.3533C75.0182 14.4111 75.2298 15.3985 75.3179 16.3329C75.4061 17.285 75.459 18.0431 75.459 18.6249Z" fill="black"/>
<path d="M81.771 6.07156V1.09961H87.2013V3.4269L81.771 6.07156ZM81.771 32.2184V7.88755H87.2013V32.2184H81.771Z" fill="black"/>
<path d="M93.9187 32.2185L93.9716 3.55042L99.4725 0.905762V19.5946L108.376 7.87002H115.164L105.714 20.0354L115.975 32.2008H108.782L99.4725 20.4762V32.2008H93.9187V32.2185Z" fill="black"/>
<path d="M128.334 32.8888C125.831 32.8888 123.68 32.3246 121.917 31.2138C120.136 30.1031 118.796 28.5692 117.844 26.6298C116.909 24.6904 116.433 22.5041 116.416 20.0534C116.433 17.5674 116.927 15.3459 117.897 13.4241C118.866 11.5024 120.242 9.96846 122.04 8.87533C123.821 7.76458 125.954 7.21802 128.423 7.21802C131.191 7.21802 133.535 7.90563 135.44 9.29848C137.361 10.6913 138.613 12.5778 139.195 14.9933L133.782 16.4567C133.359 15.152 132.672 14.1294 131.684 13.4065C130.715 12.6836 129.604 12.3134 128.352 12.3134C126.942 12.3134 125.778 12.6484 124.861 13.3184C123.944 13.9883 123.274 14.9051 122.833 16.0864C122.393 17.2501 122.181 18.59 122.181 20.071C122.181 22.3807 122.692 24.2496 123.733 25.6777C124.773 27.1058 126.307 27.8111 128.352 27.8111C129.798 27.8111 130.926 27.4761 131.772 26.8237C132.601 26.1714 133.236 25.2017 133.659 23.9675L139.195 25.2017C138.437 27.6876 137.132 29.5918 135.246 30.9141C133.342 32.2364 131.05 32.8888 128.334 32.8888Z" fill="black"/>
<path d="M166.03 18.6249V32.2185H160.529V20.4938C160.529 19.7357 160.476 18.8718 160.37 17.9373C160.264 17.0029 160.017 16.1037 159.63 15.2398C159.242 14.3759 158.677 13.6706 157.919 13.1064C157.161 12.5599 156.139 12.2778 154.834 12.2778C154.146 12.2778 153.459 12.3836 152.789 12.6128C152.119 12.842 151.502 13.2298 150.955 13.7764C150.408 14.323 149.968 15.0811 149.633 16.0332C149.298 16.9853 149.139 18.2018 149.139 19.7004V32.2008H143.638V3.55042L148.487 0.905762V10.5852C149.104 9.84469 149.827 9.20997 150.673 8.68104C152.242 7.69371 154.164 7.18241 156.438 7.18241C158.237 7.18241 159.735 7.48213 160.899 8.08159C162.063 8.68104 162.997 9.45681 163.685 10.3736C164.372 11.3081 164.884 12.2954 165.219 13.3533C165.554 14.4111 165.765 15.3985 165.871 16.3329C165.977 17.285 166.03 18.0431 166.03 18.6249Z" fill="black"/>
<path d="M172.342 6.07156V1.09961H177.772V3.4269L172.342 6.07156ZM172.342 32.2184V7.88755H177.772V32.2184H172.342Z" fill="black"/>
</svg>
