<svg width="31" height="30" viewBox="0 0 31 30" fill="none" xmlns="http://www.w3.org/2000/svg">
<path d="M26.4583 9.0972L15.8333 15M15.8333 15L5.2083 9.0972M15.8333 15L15.8333 26.875M27.0833 20.0732V9.92682C27.0833 9.49852 27.0833 9.28437 27.0202 9.09337C26.9644 8.9244 26.8731 8.76929 26.7526 8.63843C26.6162 8.49051 26.429 8.38651 26.0546 8.17851L16.8046 3.03962C16.4501 2.84267 16.2729 2.7442 16.0852 2.70559C15.919 2.67142 15.7477 2.67142 15.5815 2.70559C15.3938 2.7442 15.2166 2.84267 14.8621 3.03962L5.61206 8.17851C5.23765 8.38651 5.05045 8.49051 4.91413 8.63843C4.79354 8.7693 4.70228 8.9244 4.64645 9.09337C4.58334 9.28437 4.58334 9.49852 4.58334 9.92682V20.0732C4.58334 20.5015 4.58334 20.7157 4.64645 20.9067C4.70228 21.0756 4.79354 21.2307 4.91413 21.3616C5.05045 21.5095 5.23765 21.6135 5.61206 21.8215L14.8621 26.9604C15.2166 27.1574 15.3938 27.2558 15.5815 27.2944C15.7477 27.3286 15.919 27.3286 16.0852 27.2944C16.2729 27.2558 16.4501 27.1574 16.8046 26.9604L26.0546 21.8215C26.429 21.6135 26.6162 21.5095 26.7526 21.3616C26.8731 21.2307 26.9644 21.0756 27.0202 20.9067C27.0833 20.7157 27.0833 20.5015 27.0833 20.0732Z" stroke="#344054" stroke-width="2" stroke-linecap="round" stroke-linejoin="round"/>
<path d="M21.4583 11.875L10.2083 5.625" stroke="#344054" stroke-width="2" stroke-linecap="round" stroke-linejoin="round"/>
</svg>
