<svg width="102" height="20" viewBox="0 0 102 20" fill="none" xmlns="http://www.w3.org/2000/svg">
<path d="M4.15998 10.32H10.65C10.54 9.42 10.3 8.73 9.92998 8.24C9.40998 7.55 8.58998 7.2 7.47998 7.2C6.21998 7.2 5.27998 7.59 4.66998 8.37C4.27998 8.87 4.00998 9.52 3.86998 10.32C3.78998 10.76 3.74998 11.25 3.74998 11.79C3.74998 12.09 3.76998 12.38 3.78998 12.65C3.88998 13.64 4.17998 14.44 4.66998 15.04C5.27998 15.81 6.17998 16.19 7.34998 16.19C8.10998 16.19 8.75998 16.02 9.30998 15.68C9.85998 15.34 10.28 14.86 10.58 14.22L13.62 15.14C13.09 16.38 12.28 17.35 11.17 18.04C10.07 18.73 8.84998 19.08 7.51998 19.08C6.11998 19.08 4.88998 18.78 3.83998 18.17C2.77998 17.57 1.95998 16.72 1.36998 15.65C0.77998 14.58 0.47998 13.34 0.47998 11.94C0.47998 10.43 0.769979 9.12 1.34998 8.01C1.92998 6.9 2.73998 6.04 3.76998 5.42C4.79998 4.81 5.98998 4.5 7.34998 4.5C8.77998 4.5 9.99998 4.83 11 5.5C12 6.17 12.75 7.11 13.23 8.33C13.72 9.55 13.9 10.98 13.78 12.64H5.36998L4.15998 10.32Z" fill="black"/>
<path d="M21.9699 19.0701C20.2699 19.0701 18.8799 18.6901 17.8199 17.9201C16.7499 17.1501 16.1099 16.0801 15.8799 14.6901L19.0199 14.2001C19.1799 14.8801 19.5399 15.4201 20.0899 15.8101C20.6399 16.2001 21.3399 16.4001 22.1899 16.4001C22.9299 16.4001 23.4999 16.2501 23.9099 15.9601C24.3099 15.6701 24.5199 15.2601 24.5199 14.7501C24.5199 14.4301 24.4499 14.1801 24.2999 13.9901C24.1499 13.8001 23.8199 13.6101 23.3199 13.4301C22.8199 13.2501 22.0499 13.0301 21.0099 12.7501C19.8499 12.4401 18.9299 12.1101 18.2499 11.7601C17.5699 11.4101 17.0799 10.9901 16.7799 10.5001C16.4799 10.0101 16.3299 9.43011 16.3299 8.74011C16.3299 7.88011 16.5599 7.13011 17.0099 6.49011C17.4599 5.85011 18.0899 5.36011 18.8999 5.01011C19.7099 4.66011 20.6599 4.49011 21.7599 4.49011C22.8299 4.49011 23.7899 4.66011 24.6199 4.99011C25.4499 5.32011 26.1199 5.80011 26.6299 6.41011C27.1399 7.02011 27.4599 7.74011 27.5799 8.57011L24.4399 9.13011C24.3599 8.54011 24.0999 8.08011 23.6399 7.74011C23.1799 7.40011 22.5799 7.21011 21.8199 7.16011C21.0999 7.12011 20.5099 7.23011 20.0699 7.49011C19.6299 7.75011 19.4099 8.11011 19.4099 8.58011C19.4099 8.84011 19.4999 9.07011 19.6799 9.26011C19.8599 9.45011 20.2199 9.64011 20.7599 9.82011C21.2999 10.0101 22.1099 10.2401 23.1799 10.5101C24.2799 10.7901 25.1599 11.1101 25.8199 11.4701C26.4799 11.8301 26.9599 12.2601 27.2499 12.7701C27.5399 13.2701 27.6899 13.8801 27.6899 14.6001C27.6899 15.9901 27.1899 17.0801 26.1799 17.8701C25.1499 18.6801 23.7499 19.0701 21.9699 19.0701Z" fill="black"/>
<path d="M43.15 10.9801V18.6901H40.03V12.0401C40.03 11.6101 40 11.1201 39.94 10.5901C39.88 10.0601 39.74 9.55005 39.53 9.06005C39.31 8.57006 38.99 8.17005 38.56 7.85005C38.13 7.54005 37.55 7.38005 36.82 7.38005C36.43 7.38005 36.04 7.44005 35.65 7.57005C35.27 7.70005 34.92 7.92005 34.61 8.23005C34.3 8.54005 34.05 8.97005 33.86 9.51005C33.67 10.0501 33.58 10.7401 33.58 11.5901V18.6801H30.46V2.43005L33.21 0.930054V6.42005C33.56 6.00005 33.97 5.64005 34.45 5.34005C35.34 4.78005 36.43 4.49005 37.72 4.49005C38.74 4.49005 39.59 4.66005 40.25 5.00005C40.92 5.34005 41.44 5.78005 41.84 6.30005C42.23 6.83005 42.52 7.39005 42.71 7.99005C42.9 8.59005 43.02 9.15005 43.07 9.68005C43.12 10.2201 43.15 10.6501 43.15 10.9801Z" fill="black"/>
<path d="M46.73 3.86004V1.04004H49.81V2.36004L46.73 3.86004ZM46.73 18.69V4.89004H49.81V18.69H46.73Z" fill="black"/>
<path d="M53.6201 18.6901L53.6501 2.43005L56.7701 0.930054V11.5301L61.8201 4.88005H65.6701L60.3101 11.7801L66.1301 18.6801H62.0501L56.7701 12.0301V18.6801H53.6201V18.6901Z" fill="black"/>
<path d="M73.1399 19.07C71.7199 19.07 70.4999 18.75 69.4999 18.12C68.4899 17.49 67.7299 16.62 67.1899 15.52C66.6599 14.42 66.3899 13.18 66.3799 11.79C66.3899 10.38 66.6699 9.12001 67.2199 8.03001C67.7699 6.94001 68.5499 6.07001 69.5699 5.45001C70.5799 4.82001 71.7899 4.51001 73.1899 4.51001C74.7599 4.51001 76.0899 4.90001 77.1699 5.69001C78.2599 6.48001 78.9699 7.55001 79.2999 8.92001L76.2299 9.75001C75.9899 9.01001 75.5999 8.43001 75.0399 8.02001C74.4899 7.61001 73.8599 7.40001 73.1499 7.40001C72.3499 7.40001 71.6899 7.59001 71.1699 7.97001C70.6499 8.35001 70.2699 8.87001 70.0199 9.54001C69.7699 10.2 69.6499 10.96 69.6499 11.8C69.6499 13.11 69.9399 14.17 70.5299 14.98C71.1199 15.79 71.9899 16.19 73.1499 16.19C73.9699 16.19 74.6099 16 75.0899 15.63C75.5599 15.26 75.9199 14.71 76.1599 14.01L79.2999 14.71C78.8699 16.12 78.1299 17.2 77.0599 17.95C75.9799 18.7 74.6799 19.07 73.1399 19.07Z" fill="black"/>
<path d="M94.5198 10.9801V18.6901H91.3998V12.0401C91.3998 11.6101 91.3698 11.1201 91.3098 10.5901C91.2498 10.0601 91.1098 9.55005 90.8898 9.06005C90.6698 8.57006 90.3498 8.17005 89.9198 7.85005C89.4898 7.54005 88.9098 7.38005 88.1698 7.38005C87.7798 7.38005 87.3898 7.44005 87.0098 7.57005C86.6298 7.70005 86.2798 7.92005 85.9698 8.23005C85.6598 8.54005 85.4098 8.97005 85.2198 9.51005C85.0298 10.0501 84.9398 10.7401 84.9398 11.5901V18.6801H81.8198V2.43005L84.5698 0.930054V6.42005C84.9198 6.00005 85.3298 5.64005 85.8098 5.34005C86.6998 4.78005 87.7898 4.49005 89.0798 4.49005C90.0998 4.49005 90.9498 4.66005 91.6098 5.00005C92.2698 5.34005 92.7998 5.78005 93.1898 6.30005C93.5798 6.83005 93.8698 7.39005 94.0598 7.99005C94.2498 8.59005 94.3698 9.15005 94.4298 9.68005C94.4898 10.2201 94.5198 10.6501 94.5198 10.9801Z" fill="black"/>
<path d="M98.1001 3.86004V1.04004H101.18V2.36004L98.1001 3.86004ZM98.1001 18.69V4.89004H101.18V18.69H98.1001Z" fill="black"/>
</svg>
