<svg width="23" height="26" viewBox="0 0 23 26" fill="none" xmlns="http://www.w3.org/2000/svg">
<path d="M8.08333 11.125L10.5833 13.625L16.2083 8M21.8333 24.25V7.75C21.8333 5.6498 21.8333 4.5997 21.4246 3.79754C21.0651 3.09193 20.4914 2.51825 19.7858 2.15873C18.9836 1.75 17.9335 1.75 15.8333 1.75H7.83333C5.73313 1.75 4.68303 1.75 3.88086 2.15873C3.17526 2.51825 2.60158 3.09193 2.24205 3.79754C1.83333 4.5997 1.83333 5.6498 1.83333 7.75V24.25L5.27083 21.75L8.39583 24.25L11.8333 21.75L15.2708 24.25L18.3958 21.75L21.8333 24.25Z" stroke="#344054" stroke-width="2" stroke-linecap="round" stroke-linejoin="round"/>
</svg>
