<svg width="23" height="22" viewBox="0 0 23 22" fill="none" xmlns="http://www.w3.org/2000/svg">
<path d="M7.83325 13.6667C7.83325 14.9553 8.87792 16 10.1666 16H12.3333C13.714 16 14.8333 14.8807 14.8333 13.5C14.8333 12.1193 13.714 11 12.3333 11H10.3333C8.95254 11 7.83325 9.88071 7.83325 8.5C7.83325 7.11929 8.95254 6 10.3333 6H12.4999C13.7886 6 14.8333 7.04467 14.8333 8.33333M11.3333 4.5V6M11.3333 16V17.5M21.3333 11C21.3333 16.5228 16.8561 21 11.3333 21C5.8104 21 1.33325 16.5228 1.33325 11C1.33325 5.47715 5.8104 1 11.3333 1C16.8561 1 21.3333 5.47715 21.3333 11Z" stroke="#16B364" stroke-width="2" stroke-linecap="round" stroke-linejoin="round"/>
</svg>
