<svg width="23" height="22" viewBox="0 0 23 22" fill="none" xmlns="http://www.w3.org/2000/svg">
<path d="M7.66666 13.6667C7.66666 14.9553 8.71133 16 9.99999 16H12.1667C13.5474 16 14.6667 14.8807 14.6667 13.5C14.6667 12.1193 13.5474 11 12.1667 11H10.1667C8.78594 11 7.66666 9.88071 7.66666 8.5C7.66666 7.11929 8.78594 6 10.1667 6H12.3333C13.622 6 14.6667 7.04467 14.6667 8.33333M11.1667 4.5V6M11.1667 16V17.5M21.1667 11C21.1667 16.5228 16.6895 21 11.1667 21C5.64381 21 1.16666 16.5228 1.16666 11C1.16666 5.47715 5.64381 1 11.1667 1C16.6895 1 21.1667 5.47715 21.1667 11Z" stroke="#344054" stroke-width="2" stroke-linecap="round" stroke-linejoin="round"/>
</svg>
