<svg width="23" height="26" viewBox="0 0 23 26" fill="none" xmlns="http://www.w3.org/2000/svg">
<path d="M8.08325 11.125L10.5833 13.625L16.2083 8M21.8333 24.25V7.75C21.8333 5.6498 21.8333 4.5997 21.4245 3.79754C21.065 3.09193 20.4913 2.51825 19.7857 2.15873C18.9835 1.75 17.9334 1.75 15.8333 1.75H7.83325C5.73306 1.75 4.68296 1.75 3.88079 2.15873C3.17518 2.51825 2.6015 3.09193 2.24198 3.79754C1.83325 4.5997 1.83325 5.6498 1.83325 7.75V24.25L5.27075 21.75L8.39575 24.25L11.8333 21.75L15.2708 24.25L18.3958 21.75L21.8333 24.25Z" stroke="#F04438" stroke-width="2" stroke-linecap="round" stroke-linejoin="round"/>
</svg>
