<svg width="25" height="24" viewBox="0 0 25 24" fill="none" xmlns="http://www.w3.org/2000/svg">
<path d="M6.18666 2.64L4.62666 4.72C4.31767 5.13198 4.16318 5.33797 4.16676 5.51039C4.16988 5.66044 4.24024 5.80115 4.35841 5.89368C4.4942 6 4.75168 6 5.26666 6H20.0667C20.5816 6 20.8391 6 20.9749 5.89368C21.0931 5.80115 21.1634 5.66044 21.1665 5.51039C21.1701 5.33797 21.0156 5.13198 20.7067 4.72L19.1467 2.64M6.18666 2.64C6.36266 2.40533 6.45066 2.288 6.56218 2.20338C6.66096 2.12842 6.77281 2.0725 6.89204 2.03845C7.02666 2 7.17332 2 7.46666 2H17.8667C18.16 2 18.3067 2 18.4413 2.03845C18.5605 2.0725 18.6724 2.12842 18.7711 2.20338C18.8827 2.288 18.9707 2.40533 19.1467 2.64M6.18666 2.64L4.30666 5.14666C4.0692 5.46328 3.95047 5.62159 3.86615 5.79592C3.79134 5.95062 3.73678 6.11431 3.70381 6.28296C3.66666 6.47301 3.66666 6.6709 3.66666 7.06666L3.66666 18.8C3.66666 19.9201 3.66666 20.4802 3.88464 20.908C4.07639 21.2843 4.38235 21.5903 4.75868 21.782C5.1865 22 5.74655 22 6.86666 22L18.4667 22C19.5868 22 20.1468 22 20.5746 21.782C20.951 21.5903 21.2569 21.2843 21.4487 20.908C21.6667 20.4802 21.6667 19.9201 21.6667 18.8V7.06667C21.6667 6.6709 21.6667 6.47301 21.6295 6.28296C21.5965 6.11431 21.542 5.95062 21.4672 5.79592C21.3828 5.62159 21.2641 5.46328 21.0267 5.14667L19.1467 2.64M16.6667 10C16.6667 11.0609 16.2452 12.0783 15.4951 12.8284C14.7449 13.5786 13.7275 14 12.6667 14C11.6058 14 10.5884 13.5786 9.83823 12.8284C9.08808 12.0783 8.66666 11.0609 8.66666 10" stroke="#0063FF" stroke-width="2" stroke-linecap="round" stroke-linejoin="round"/>
</svg>
