<svg width="393" height="147" viewBox="0 0 393 147" fill="none" xmlns="http://www.w3.org/2000/svg">
<path d="M275.464 107C273.15 100.6 264.857 97 261 96C266.4 96.8 272.893 100.333 275.464 102C277.779 98 284.786 96.3333 288 96C279.514 98.4 276.107 104.333 275.464 107Z" fill="#E6EFFF"/>
<path d="M51.4643 147C49.15 140.6 40.8571 137 37 136C42.4 136.8 48.8929 140.333 51.4643 142C53.7786 138 60.7857 136.333 64 136C55.5143 138.4 52.1071 144.333 51.4643 147Z" fill="#E6EFFF"/>
<path d="M309.464 118C307.15 111.018 298.857 107.091 295 106C300.4 106.873 306.893 110.727 309.464 112.545C311.779 108.182 318.786 106.364 322 106C313.514 108.618 310.107 115.091 309.464 118Z" fill="#E6EFFF"/>
<path d="M301.464 94C299.15 87.6 290.857 84 287 83C292.4 83.8 298.893 87.3333 301.464 89C303.779 85 310.786 83.3333 314 83C305.514 85.4 302.107 91.3333 301.464 94Z" fill="#E6EFFF"/>
<path d="M77.4643 134C75.15 127.6 66.8571 124 63 123C68.4 123.8 74.8929 127.333 77.4643 129C79.7786 125 86.7857 123.333 90 123C81.5143 125.4 78.1071 131.333 77.4643 134Z" fill="#E6EFFF"/>
<path fill-rule="evenodd" clip-rule="evenodd" d="M-4 65.5C-4 52.5213 6.52131 42 19.5 42C31.4137 42 41.2568 50.8655 42.7919 62.3592C43.4188 62.0021 44.056 61.703 44.6811 61.4558C42.7432 49.2944 32.207 40 19.5 40C5.41674 40 -6 51.4167 -6 65.5C-6 79.5833 5.41674 91 19.5 91C23.5359 91 27.3528 90.0624 30.7447 88.3932C29.8609 88.0806 29.0441 87.6811 28.3471 87.2778C25.6163 88.3882 22.6296 89 19.5 89C6.52131 89 -4 78.4787 -4 65.5Z" fill="#E6EFFF"/>
<path d="M40 44L47 37" stroke="#E6EFFF" stroke-width="2" stroke-miterlimit="10" stroke-linecap="round" stroke-linejoin="round"/>
<path d="M30 38L37 19" stroke="#E6EFFF" stroke-width="2" stroke-miterlimit="10" stroke-linecap="round" stroke-linejoin="round"/>
<path d="M9 38L0 19" stroke="#E6EFFF" stroke-width="2" stroke-miterlimit="10" stroke-linecap="round" stroke-linejoin="round"/>
<path d="M7 93L0 112" stroke="#E6EFFF" stroke-width="2" stroke-miterlimit="10" stroke-linecap="round" stroke-linejoin="round"/>
<path d="M31 93L40 112" stroke="#E6EFFF" stroke-width="2" stroke-miterlimit="10" stroke-linecap="round" stroke-linejoin="round"/>
<path d="M46 54L65 45" stroke="#E6EFFF" stroke-width="2" stroke-miterlimit="10" stroke-linecap="round" stroke-linejoin="round"/>
<path d="M20 36V26" stroke="#E6EFFF" stroke-width="2" stroke-miterlimit="10" stroke-linecap="round" stroke-linejoin="round"/>
<path d="M-1 45L-8 38" stroke="#E6EFFF" stroke-width="2" stroke-miterlimit="10" stroke-linecap="round" stroke-linejoin="round"/>
<path d="M-1 85L-8 92" stroke="#E6EFFF" stroke-width="2" stroke-miterlimit="10" stroke-linecap="round" stroke-linejoin="round"/>
<path d="M20 96V106" stroke="#E6EFFF" stroke-width="2" stroke-miterlimit="10" stroke-linecap="round" stroke-linejoin="round"/>
<path d="M102.65 26.8875H112.425C113.47 20.8256 118.293 11.5304 129.425 18.7898M132.4 21.0104C131.362 20.1426 130.371 19.4065 129.425 18.7898M129.425 18.7898C129.567 14.4925 132.06 7.07326 140.9 11.7749C141.183 9.11625 143.025 3.37908 148.125 1.69991C154.5 -0.399053 159.175 2.5395 161.725 6.31763C163.765 9.34014 163.708 13.4541 163.425 15.1333M159.175 21.0104C159.883 18.6315 162.66 13.8739 168.1 13.8739C173.54 13.8739 175.467 20.3107 175.75 23.5291M95 34.0239H102.65M109.45 34.0239H123.9M155.35 29.826H180M132.4 37.3823H159.175M123.9 42H129.425" stroke="#E6EFFF" stroke-width="2" stroke-linecap="round"/>
<path d="M183 48.5564H190.2C190.733 45.6626 193.32 39.7961 199.4 39.4804C203.31 39.2773 206.056 40.8502 207.8 42.8552M210.2 48.5564C210.2 47.0238 209.446 44.7471 207.8 42.8552M207.8 42.8552C208.467 40.0203 211.08 35.5343 216.2 40.2696C215.533 38.0335 215.4 33.0088 220.2 30.799C226.2 28.0367 230.2 33.1666 230.6 35.1397C231 37.1127 231.4 38.6912 229.8 42.2426C230.333 40.7957 232.12 37.823 235 37.5073C238.6 37.1127 241.8 40.6642 241.4 43.8211M190.6 54.4755H209M220.2 54.4755H238.2M233 48.5564H241M245.4 48.5564H249M211.4 60H220.2" stroke="#E6EFFF" stroke-width="2" stroke-linecap="round"/>
<path d="M400 64.5564H392.8C392.267 61.6626 389.68 55.7961 383.6 55.4804C379.69 55.2773 376.944 56.8502 375.2 58.8552M372.8 64.5564C372.8 63.0238 373.554 60.7471 375.2 58.8552M375.2 58.8552C374.533 56.0203 371.92 51.5343 366.8 56.2696C367.467 54.0335 367.6 49.0088 362.8 46.799C356.8 44.0367 352.8 49.1666 352.4 51.1397C352 53.1127 351.6 54.6912 353.2 58.2426C352.667 56.7957 350.88 53.823 348 53.5073C344.4 53.1127 341.2 56.6642 341.6 59.8211M392.4 70.4755H374M362.8 70.4755H344.8M350 64.5564H342M337.6 64.5564H334M371.6 76H362.8" stroke="#E6EFFF" stroke-width="2" stroke-linecap="round"/>
<path d="M93.2085 85.3544C93.7085 82.8544 93.6085 77.0544 89.2085 73.8544C85.5419 71.1877 80.3196 70.7432 76.2085 73.1136M71.2085 78.8544C72.3752 76.1877 74.1529 74.2988 76.2085 73.1136M76.2085 73.1136C76.5418 70.3605 76.0085 64.1544 71.2085 61.3544C65.2085 57.8544 58.7085 61.5951 57.7085 67.3544M60.2085 73.1136C59.8752 70.0272 57.2085 64.0544 49.2085 64.8544C39.2085 65.8544 40.2085 76.3543 42.2085 78.8544C40.8752 76.8544 37.2085 73.4544 33.2085 75.8544C29.2085 78.2544 31.5418 83.1877 33.2085 85.3544M108.208 75.8544H98.2085M116.708 82.3544H102.208M120.708 82.3544H127.708M55.2085 89.3544H43.7085M79.2085 95.3544H57.7085M120.708 67.3544H106.208" stroke="#E6EFFF" stroke-width="2" stroke-linecap="round"/>
<path d="M289.5 26.1904C288.667 24.6904 287.8 21.0904 291 18.6904C294.2 16.2904 297.667 18.3571 299 19.6904C298.667 17.8571 298.8 13.8904 302 12.6904C304.246 11.8481 306.335 12.1094 308 13.2089M311 17.1904C310.342 15.4366 309.3 14.0673 308 13.2089M308 13.2089C308 11.3694 309 7.29042 313 5.69042C318 3.69042 324 6.19042 326 11.1904M324 14.1904C324.667 12.8571 327 10.3904 331 11.1904C332.833 11.6904 336.1 13.8904 334.5 18.6904M332 22.1904C332.5 20.6904 334.8 17.8904 340 18.6904C345.2 19.4904 345.833 24.6904 345.5 27.1904M348 16.1904H356M351.5 22.1904H367M274 11.6904H288M266.5 19.6904H281.5M262 19.6904H255M292 32.1904H299M303 32.1904H325" stroke="#E6EFFF" stroke-width="2" stroke-linecap="round"/>
</svg>
