<svg width="393" height="173" viewBox="0 0 393 173" fill="none" xmlns="http://www.w3.org/2000/svg">
<g clip-path="url(#clip0_0_2461)">
<path d="M219.432 116.855V119.308C219.429 125.059 217.567 130.654 214.124 135.26C210.681 139.866 205.841 143.235 200.327 144.865C194.812 146.496 188.918 146.3 183.524 144.307C178.13 142.314 173.525 138.631 170.395 133.807C167.265 128.983 165.778 123.276 166.157 117.538C166.535 111.8 168.758 106.338 172.494 101.967C176.231 97.5958 181.28 94.5493 186.889 93.282C192.498 92.0147 198.366 92.5945 203.619 94.9349M219.432 97.9597L192.766 124.653L184.766 116.653" stroke="#12B76A" stroke-width="5" stroke-linecap="round" stroke-linejoin="round"/>
<path d="M353.016 40.0995L352.392 43.1496C351.732 46.3731 353.666 49.5609 356.829 50.4659V50.4659" stroke="#F7CD58" stroke-width="2" stroke-linecap="round"/>
<path d="M378.373 47.8003C378.315 48.7731 379.045 51.2352 379.674 53.1043C379.977 54.0066 380.772 54.6464 381.715 54.7821V54.7821C382.998 54.967 384.22 54.1757 384.576 52.9296L385.95 48.1275C386.204 47.2392 386.906 46.5494 387.798 46.3102V46.3102C388.702 46.0681 389.666 46.3242 390.33 46.9827L392.771 49.4019C393.681 50.3037 394.909 50.8121 396.19 50.8178V50.8178C398.379 50.8276 400.308 49.3799 400.91 47.2749L402.297 42.4252" stroke="#53A9A4" stroke-width="2" stroke-linecap="round"/>
<path d="M262.029 67.5847L262.895 70.8172C263.411 72.7424 263.024 74.7978 261.843 76.4034V76.4034C260.629 78.0529 258.716 79.0412 256.668 79.0757L255.795 79.0904" stroke="#12B76A" stroke-width="2" stroke-linecap="round"/>
<path d="M337.344 132.297L336.129 135.07C335.337 136.877 335.904 138.992 337.494 140.162V140.162C338.951 141.234 340.93 141.258 342.413 140.22L343.422 139.514C344.218 138.957 345.265 138.911 346.107 139.397V139.397C346.781 139.786 347.236 140.468 347.336 141.24L347.936 145.859C348.067 146.866 348.784 147.699 349.761 147.978V147.978C350.515 148.194 351.326 148.05 351.959 147.589L353.071 146.781C354.765 145.548 357.169 146.398 357.712 148.422V148.422C358.044 149.664 359.134 150.553 360.417 150.63L360.818 150.654C362.158 150.735 363.428 150.051 364.099 148.889L364.772 147.724" stroke="#9747FF" stroke-width="2" stroke-linecap="round"/>
<path d="M362.286 115.262L360.133 115.838C359.188 116.092 358.627 117.063 358.881 118.008V118.008C359.072 118.722 359.685 119.242 360.421 119.314L362.254 119.492C362.973 119.562 363.574 120.071 363.761 120.769V120.769C363.892 121.259 363.803 121.781 363.517 122.198L362.309 123.964C361.733 124.805 361.7 125.904 362.224 126.778V126.778C362.823 127.777 364.011 128.258 365.136 127.956L365.705 127.804C367.114 127.426 368.124 126.189 368.211 124.733L368.255 124.015" stroke="#56A5DC" stroke-width="2" stroke-linecap="round"/>
<path d="M312.586 59.2154L313.047 63.0432C313.506 66.8516 316.769 69.6968 320.605 69.6323L324.13 69.573C325.37 69.5521 326.446 68.7152 326.773 67.5191V67.5191C327.339 65.4433 325.44 63.5358 323.362 64.0926L323.234 64.1268C321.845 64.499 320.947 65.8442 321.137 67.27L321.536 70.2742C321.981 73.6282 324.991 76.0351 328.361 75.7323L332.345 75.3744C333.303 75.2883 334.091 74.584 334.284 73.6417L334.315 73.4891C334.587 72.159 333.52 70.9341 332.165 71.0215V71.0215C330.905 71.1028 330.014 72.2893 330.288 73.5223L331.298 78.0776C331.871 80.6585 334.051 82.5699 336.685 82.7995L338.091 82.9221" stroke="#DB6483" stroke-width="2" stroke-linecap="round"/>
<path d="M341.852 104.69L346.76 104.771C350.373 104.831 353.641 102.635 354.95 99.2675L355.392 98.1332C355.875 96.8897 355.885 95.5119 355.419 94.2617L354.735 92.4263C353.671 89.5708 355.92 86.5721 358.959 86.7942V86.7942C361.764 86.9992 363.968 84.4325 363.341 81.6905L362.166 76.5514C361.806 74.9772 362.243 73.3266 363.335 72.1365L364.068 71.3371C365.196 70.1077 367.026 69.8264 368.471 70.6606V70.6606C369.59 71.3069 370.271 72.5094 370.25 73.8019L370.225 75.3473" stroke="#12B76A" stroke-width="2" stroke-linecap="round"/>
<path d="M291.101 137.441L298.45 141.684M277.83 55.0696V55.0696C277.895 58.9889 279.694 62.6778 282.742 65.1432L283.221 65.5307" stroke="#F6C84B" stroke-width="2" stroke-linecap="round"/>
<path d="M309.029 129.014L309.426 129.139C312.95 130.248 316.796 129.126 319.172 126.296V126.296" stroke="#4AA39E" stroke-width="2" stroke-linecap="round"/>
<path d="M309.476 97.8373L309.133 99.0356C307.885 103.396 309.402 108.077 312.97 110.877V110.877" stroke="#F6C84B" stroke-width="2" stroke-linecap="round"/>
<path d="M280.23 96.8729L282.209 99.6416C282.533 100.096 283.018 100.411 283.565 100.523V100.523C284.386 100.691 285.231 100.38 285.749 99.7211L285.875 99.5607C286.245 99.0889 286.437 98.5014 286.416 97.902L286.274 93.8507C286.239 92.863 286.891 91.9822 287.846 91.7264V91.7264C288.622 91.5184 289.449 91.7669 289.983 92.3683L290.66 93.1324C291.076 93.6007 291.72 93.7942 292.324 93.6322V93.6322C293.138 93.4143 293.657 92.6198 293.53 91.7874L292.389 84.2973" stroke="#58A7DC" stroke-width="2" stroke-linecap="round"/>
<path d="M393.395 140.573L392.802 140.732C391.386 141.112 389.991 140.059 389.966 138.593V138.593C389.953 137.823 390.334 137.1 390.977 136.675L394.046 134.649C394.805 134.148 395.361 133.391 395.611 132.515V132.515C395.877 131.586 395.78 130.59 395.34 129.729L393.249 125.643C392.935 125.03 392.839 124.328 392.978 123.652V123.652C393.249 122.325 394.368 121.338 395.719 121.235L399.809 120.921C400.885 120.839 401.833 120.181 402.286 119.201V119.201C402.826 118.033 402.554 116.65 401.613 115.772L399.741 114.026" stroke="#DB6684" stroke-width="2" stroke-linecap="round"/>
<path d="M385.819 79.451L386.448 78.7352C388.106 76.8486 390.939 76.5617 392.942 78.0776V78.0776C393.593 78.5706 394.107 79.2217 394.436 79.9693L398.396 88.9709C398.928 90.1804 398.929 91.5575 398.399 92.7678L398.363 92.851C397.4 95.0477 394.918 96.1438 392.646 95.3753V95.3753C390.172 94.5383 388.882 91.8195 389.798 89.3736L390.882 86.4807C391.954 83.6196 394.632 81.6762 397.684 81.5445L402.98 81.3159C405.161 81.2218 407.249 82.2114 408.557 83.96L409.486 85.2022C410.58 86.6642 410.651 88.6518 409.664 90.1879L409.184 90.9351C408.138 92.5628 405.967 93.0293 404.345 91.9751V91.9751C402.82 90.9845 402.311 88.9895 403.175 87.3895L405.432 83.2093C406.748 80.7715 409.153 79.1123 411.899 78.7474L419.023 77.8008" stroke="#F7CC54" stroke-width="2" stroke-linecap="round"/>
<path d="M53.2513 28.6286L53.2517 31.7419C53.2522 35.0322 55.7858 37.7674 59.0664 38.0193V38.0193" stroke="#F7CD58" stroke-width="2" stroke-linecap="round"/>
<path d="M79.637 31.0848C79.775 32.0496 80.9839 34.3152 81.9749 36.0202C82.4533 36.8432 83.3606 37.3104 84.311 37.2544V37.2544C85.6049 37.1781 86.6435 36.1578 86.7427 34.8654L87.1251 29.8854C87.1958 28.9642 87.7447 28.1476 88.571 27.7343V27.7343C89.4077 27.3158 90.4037 27.3732 91.1868 27.8851L94.0635 29.7654C95.1357 30.4663 96.4403 30.7181 97.6964 30.4667V30.4667C99.8432 30.037 101.442 28.2319 101.61 26.0489L101.996 21.0194" stroke="#53A9A4" stroke-width="2" stroke-linecap="round"/>
<path d="M56.3939 122.095L55.7599 125.056C55.3467 126.986 56.3262 128.944 58.1181 129.771V129.771C59.7613 130.529 61.7048 130.155 62.9492 128.841L63.7964 127.946C64.4645 127.241 65.4808 126.986 66.4026 127.293V127.293C67.1415 127.54 67.7236 128.116 67.9769 128.853L69.4914 133.256C69.8218 134.217 70.6915 134.889 71.7043 134.967V134.967C72.4858 135.027 73.2514 134.724 73.7799 134.145L74.7065 133.13C76.1192 131.582 78.6451 131.933 79.5826 133.807V133.807C80.1575 134.957 81.4035 135.609 82.6759 135.427L83.0733 135.37C84.4018 135.181 85.5089 134.256 85.9331 132.983L86.3585 131.706" stroke="#9747FF" stroke-width="2" stroke-linecap="round"/>
<path d="M77.4095 100.402L75.4168 101.399C74.5416 101.837 74.1869 102.901 74.6247 103.776V103.776C74.9551 104.437 75.6607 104.823 76.3953 104.746L78.227 104.553C78.9461 104.477 79.6368 104.855 79.9603 105.502V105.502C80.1868 105.955 80.2041 106.484 80.0077 106.951L79.1778 108.923C78.7824 109.862 78.9705 110.946 79.6594 111.697V111.697C80.4464 112.555 81.7071 112.788 82.7486 112.267L83.2758 112.003C84.5807 111.351 85.3215 109.936 85.115 108.492L85.0132 107.78" stroke="#56A5DC" stroke-width="2" stroke-linecap="round"/>
<path d="M17.4763 55.4657L18.696 59.1232C19.9096 62.7621 23.6775 64.8947 27.422 64.0621L30.8637 63.2967C32.0739 63.0276 32.961 61.9917 33.0406 60.7544V60.7544C33.1789 58.6072 30.9358 57.1194 29.0114 58.082L28.8935 58.141C27.6071 58.7844 26.9976 60.2822 27.4692 61.6411L28.463 64.5041C29.5724 67.7005 33.0039 69.4546 36.2445 68.4819L40.0753 67.3321C40.9966 67.0556 41.6274 66.2075 41.6272 65.2457L41.6272 65.0899C41.627 63.7322 40.3359 62.7464 39.0261 63.1038V63.1038C37.8076 63.4363 37.1729 64.7773 37.6883 65.9304L39.5924 70.1903C40.6712 72.6039 43.1909 74.039 45.8172 73.7356L47.2186 73.5736" stroke="#DB6483" stroke-width="2" stroke-linecap="round"/>
<path d="M55.2716 94.1438L60.0955 93.2386C63.6469 92.5722 66.4078 89.7652 67.0154 86.2033L67.2201 85.0036C67.4444 83.6884 67.1776 82.3366 66.4703 81.2053L65.432 79.5445C63.8165 76.9604 65.4181 73.5716 68.4402 73.1794V73.1794C71.2295 72.8175 72.8736 69.8608 71.7093 67.3004L69.5272 62.5015C68.8587 61.0314 68.9556 59.3267 69.7863 57.9419L70.3442 57.0116C71.2024 55.5809 72.9391 54.9382 74.5218 55.4656V55.4656C75.7483 55.8742 76.6567 56.9156 76.8952 58.1861L77.1802 59.7052" stroke="#12B76A" stroke-width="2" stroke-linecap="round"/>
<path d="M12.1214 136.412L20.1717 139.094M-17.4057 58.3773V58.3773C-16.5548 62.2038 -14.0526 65.4567 -10.5724 67.2606L-10.0254 67.5441" stroke="#F6C84B" stroke-width="2" stroke-linecap="round"/>
<path d="M27.9961 124.559L28.4098 124.601C32.0851 124.981 35.6276 123.111 37.3869 119.862V119.862" stroke="#4AA39E" stroke-width="2" stroke-linecap="round"/>
<path d="M22.1789 93.9264L22.0835 95.1692C21.7363 99.691 24.1615 103.973 28.218 106V106" stroke="#F6C84B" stroke-width="2" stroke-linecap="round"/>
<path d="M-6.66534 98.8501L-4.17115 101.165C-3.76189 101.545 -3.22409 101.756 -2.66567 101.756V101.756C-1.8277 101.756 -1.06171 101.283 -0.687066 100.533L-0.595881 100.351C-0.327728 99.8142 -0.257886 99.2002 -0.398701 98.6172L-1.35043 94.6767C-1.58246 93.7161 -1.12071 92.7224 -0.236833 92.2803V92.2803C0.482124 91.9207 1.34255 91.9982 1.98572 92.4804L2.80283 93.0931C3.30355 93.4685 3.9734 93.5288 4.53312 93.2488V93.2488C5.2861 92.8722 5.63547 91.9897 5.34431 91.1997L2.72405 84.0907" stroke="#58A7DC" stroke-width="2" stroke-linecap="round"/>
<path d="M112.966 118.958L112.417 119.232C111.106 119.888 109.528 119.137 109.209 117.706V117.706C109.042 116.954 109.271 116.169 109.815 115.624L112.415 113.024C113.058 112.38 113.451 111.527 113.52 110.619V110.619C113.594 109.655 113.299 108.699 112.695 107.944L109.828 104.361C109.397 103.822 109.162 103.154 109.162 102.465V102.465C109.162 101.109 110.06 99.9184 111.363 99.5459L115.307 98.4185C116.345 98.1219 117.141 97.287 117.388 96.2362V96.2362C117.683 94.9834 117.14 93.6831 116.041 93.0121L113.857 91.6775" stroke="#DB6684" stroke-width="2" stroke-linecap="round"/>
<path d="M93.2812 60.598L93.7539 59.7706C94.9996 57.5898 97.7176 56.7403 99.9835 57.8237V57.8237C100.72 58.1759 101.355 58.7106 101.827 59.377L107.513 67.4011C108.277 68.4793 108.554 69.8282 108.277 71.1203L108.258 71.2092C107.756 73.5542 105.544 75.126 103.164 74.8289V74.8289C100.573 74.5053 98.7632 72.1006 99.1702 69.5206L99.6515 66.4691C100.128 63.4512 102.361 61.01 105.325 60.2686L110.467 58.9824C112.586 58.4524 114.829 59.0031 116.462 60.4537L117.621 61.4842C118.986 62.6971 119.454 64.6301 118.795 66.3329L118.475 67.1614C117.776 68.9658 115.744 69.8582 113.943 69.151V69.151C112.251 68.4864 111.352 66.634 111.877 64.8933L113.249 60.3453C114.049 57.693 116.073 55.5851 118.69 54.6767L125.479 52.32" stroke="#9747FF" stroke-width="2" stroke-linecap="round"/>
</g>
<defs>
<clipPath id="clip0_0_2461">
<rect width="393" height="173" fill="white"/>
</clipPath>
</defs>
</svg>
