<svg width="31" height="30" viewBox="0 0 31 30" fill="none" xmlns="http://www.w3.org/2000/svg">
<path d="M20.5 20V7.75C20.5 6.34987 20.5 5.6498 20.2275 5.11502C19.9878 4.64462 19.6054 4.26217 19.135 4.02248C18.6002 3.75 17.9001 3.75 16.5 3.75H7C5.59987 3.75 4.8998 3.75 4.36502 4.02248C3.89462 4.26217 3.51217 4.64462 3.27248 5.11502C3 5.6498 3 6.34987 3 7.75V16C3 17.4001 3 18.1002 3.27248 18.635C3.51217 19.1054 3.89462 19.4878 4.36502 19.7275C4.8998 20 5.59987 20 7 20H20.5ZM20.5 20H26C26.7001 20 27.0501 20 27.3175 19.8638C27.5527 19.7439 27.7439 19.5527 27.8638 19.3175C28 19.0501 28 18.7001 28 18V14.5784C28 14.2727 28 14.1198 27.9655 13.976C27.9348 13.8484 27.8843 13.7265 27.8158 13.6146C27.7385 13.4885 27.6304 13.3804 27.4142 13.1642L24.8358 10.5858C24.6196 10.3696 24.5115 10.2615 24.3854 10.1842C24.2735 10.1157 24.1516 10.0652 24.024 10.0345C23.8802 10 23.7273 10 23.4216 10H20.5M11.75 23.125C11.75 24.8509 10.3509 26.25 8.625 26.25C6.89911 26.25 5.5 24.8509 5.5 23.125C5.5 21.3991 6.89911 20 8.625 20C10.3509 20 11.75 21.3991 11.75 23.125ZM25.5 23.125C25.5 24.8509 24.1009 26.25 22.375 26.25C20.6491 26.25 19.25 24.8509 19.25 23.125C19.25 21.3991 20.6491 20 22.375 20C24.1009 20 25.5 21.3991 25.5 23.125Z" stroke="#344054" stroke-width="2" stroke-linecap="round" stroke-linejoin="round"/>
</svg>
