<svg width="393" height="264" viewBox="0 0 393 264" fill="none" xmlns="http://www.w3.org/2000/svg">
<path fill-rule="evenodd" clip-rule="evenodd" d="M440.176 173.821V254.945H469.307V264.091H-79.876V254.945H-50.9695V191.434H-0.839256V164.505L111.618 185.281V119.57C111.618 119.57 141.341 119.307 181.253 121.586C181.763 93.597 181.259 65.2841 181.1 56.325C181.072 54.7782 181.055 53.8083 181.055 53.5166C181.055 50.3562 178.007 43.2424 176.2 42.2282C174.392 41.2111 153.505 39.0648 153.505 39.0648V28.5665L181.957 24.05L185.121 -0.000976562L188.281 24.05L216.734 28.5665V39.0648C216.734 39.0648 195.846 41.2111 194.039 42.2282C192.232 43.2424 189.183 50.3562 189.183 53.5166C189.183 53.8082 189.166 54.7775 189.138 56.3234L189.138 56.3265V56.3287C188.978 65.3416 188.469 93.9158 188.995 122.052C207.179 123.208 227.111 124.894 247.105 127.353V108.051C247.105 108.051 285.269 92.9215 381.691 93.1485V130.183H420.418V187.454H432.387V173.821H440.176ZM416.974 230.066C425.486 230.066 432.387 223.167 432.387 214.656V209.641H401.564V214.656C401.564 223.167 408.463 230.066 416.974 230.066ZM432.387 201.849V195.246H401.564V201.849H432.387ZM412.514 138.084H381.691V187.454H393.772V173.821H401.564V187.454H412.514V138.084ZM378.36 230.066C386.874 230.066 393.772 223.167 393.772 214.656V209.641H362.95V214.656C362.95 223.167 369.848 230.066 378.36 230.066ZM393.772 201.849V195.246H362.95V201.849H393.772ZM373.787 110.422V101.277C373.787 101.277 315.868 100.937 274.768 109.632C274.768 109.632 279.833 128.175 283.173 132.736C305.193 136.687 325.977 141.813 343.076 148.473V187.454H355.158V173.821H362.95V187.454H373.787V158.07H356.965V151.071H373.787V144.523H356.965V137.521H373.787V130.973H356.965V123.971H373.787V117.423H356.965V110.422H373.787ZM355.158 214.656V209.641H324.335V214.656C324.335 223.167 331.233 230.066 339.748 230.066C348.259 230.066 355.158 223.167 355.158 214.656ZM324.335 195.246V201.849H355.158V195.246H324.335ZM129.908 197.701L7.12073 175.007L6.95269 191.434H50.9861V214.382H129.908V197.701ZM4.91846 228.524V254.945H42.1771V199.733H-42.8414V228.524H4.91846ZM50.3081 223.274V254.945L63.9697 254.945V254.211C63.9697 239.527 75.8743 227.622 90.559 227.622C105.244 227.622 117.148 239.527 117.148 254.211V254.945L129.569 254.945V223.274H50.3081ZM137.473 190.304V254.945H152.603C168.862 227.395 176.2 184.715 176.2 184.715H161.636L155.875 173.087H178.231C179.793 162.306 180.642 146.424 181.076 129.732C162.526 128.576 142.178 127.769 119.973 127.471V134.361H137.022V141.811H119.973V147.907H137.022V155.36H119.973V161.457H137.022V168.91H119.973V175.007H137.022V182.459H119.973V187.032L137.473 190.304ZM181.167 202.442C176.312 225.025 162.199 254.945 162.199 254.945H181.167V202.442ZM189.071 202.442V254.945H208.039C208.039 254.945 193.927 225.025 189.071 202.442ZM194.039 184.715C194.039 184.715 201.377 227.395 217.636 254.945H239.316V173.821H247.105V187.454H277.928V173.821H285.72V187.454H316.543V173.821H324.335V187.454H335.626V154.797C335.626 154.797 290.738 137.341 189.177 130.266C189.614 146.763 190.463 162.421 192.008 173.087H214.363L208.606 184.715H194.039ZM316.543 214.656V209.641H285.72V214.656C285.72 223.167 292.619 230.066 301.133 230.066C309.644 230.066 316.543 223.167 316.543 214.656ZM285.72 195.246V201.849H316.543V195.246H285.72ZM277.928 214.656V209.641H247.105V214.656C247.105 223.167 254.007 230.066 262.518 230.066C271.03 230.066 277.928 223.167 277.928 214.656ZM247.105 195.246V201.849H277.928V195.246H247.105ZM247.105 249.931V254.945H277.928V249.931C277.928 241.419 271.03 234.518 262.518 234.518C254.007 234.518 247.105 241.419 247.105 249.931ZM285.72 249.931V254.945H316.543V249.931C316.543 241.419 309.644 234.518 301.133 234.518C292.619 234.518 285.72 241.419 285.72 249.931ZM324.335 249.931V254.945H355.158V249.931C355.158 241.419 348.259 234.518 339.748 234.518C331.233 234.518 324.335 241.419 324.335 249.931ZM362.95 249.931V254.945H393.772V249.931C393.772 241.419 386.874 234.518 378.36 234.518C369.848 234.518 362.95 241.419 362.95 249.931ZM401.564 249.931V254.945H432.387V249.931C432.387 241.419 425.486 234.518 416.974 234.518C408.463 234.518 401.564 241.419 401.564 249.931ZM32.8462 226.455C32.8462 226.455 25.6556 232.778 23.9251 240.379C22.1945 232.778 15.004 226.455 15.004 226.455C21.8555 220.547 23.9251 212.604 23.9251 212.604C23.9251 212.604 25.9947 220.547 32.8462 226.455ZM2.67778 220.836C3.70374 216.331 7.96675 212.584 7.96675 212.584C3.90716 209.081 2.67778 204.373 2.67778 204.373C2.67778 204.373 1.44841 209.081 -2.61118 212.584C-2.61118 212.584 1.65183 216.331 2.67778 220.836ZM-7.68781 212.584C-7.68781 212.584 -11.9508 216.331 -12.9768 220.836C-14.0027 216.331 -18.2657 212.584 -18.2657 212.584C-14.2061 209.081 -12.9768 204.373 -12.9768 204.373C-12.9768 204.373 -11.7503 209.081 -7.68781 212.584ZM-28.6343 220.836C-27.6084 216.331 -23.3454 212.584 -23.3454 212.584C-27.4079 209.081 -28.6343 204.373 -28.6343 204.373C-28.6343 204.373 -29.8637 209.081 -33.9233 212.584C-33.9233 212.584 -29.6603 216.331 -28.6343 220.836Z" fill="#D1E9FF"/>
</svg>
