<svg width="33" height="32" viewBox="0 0 33 32" fill="none" xmlns="http://www.w3.org/2000/svg">
<g clip-path="url(#clip0_0_2233)">
<path d="M30.1034 5.51721H2.89656C1.57294 5.51721 0.5 6.59015 0.5 7.91377V11.885H32.5V7.91377C32.5 6.59015 31.4271 5.51721 30.1034 5.51721Z" fill="#397DF7"/>
<path d="M0.5 24.0862C0.5 25.4097 1.57294 26.4827 2.89656 26.4827H30.1034C31.427 26.4827 32.5 25.4098 32.5 24.0862V20.115H0.5V24.0862Z" fill="#76D866"/>
<path d="M32.5 12.7562H0.5V19.2431H32.5V12.7562Z" fill="white"/>
<path d="M0.5 12.5057V12.7563H32.5V12.5057V11.8849H0.5V12.5057Z" fill="#FF4B55"/>
<path d="M0.5 19.4942V20.115H32.5V19.4942V19.2435H0.5V19.4942Z" fill="#FF4B55"/>
<path d="M6.00985 10.6193C4.95508 10.6193 4.10011 9.76632 4.10011 8.71535C4.10011 7.66053 4.95503 6.80374 6.00985 6.80374C6.01393 6.80374 6.0179 6.80374 6.02187 6.8038C6.08397 6.80462 6.10574 6.72215 6.05099 6.69279C5.72619 6.51869 5.35552 6.42017 4.96145 6.42303C3.69938 6.43202 2.67421 7.47785 2.68763 8.73992C2.70082 9.98898 3.72196 11 4.97796 11C5.36661 11 5.73209 10.9017 6.05286 10.73C6.10743 10.7007 6.08537 10.6183 6.0235 10.6191C6.01883 10.6193 6.01434 10.6193 6.00985 10.6193Z" fill="#F5F5F5"/>
<path d="M7.50523 10.0928L7.41996 10.3486L7.15037 10.3506C7.11547 10.3508 7.101 10.3954 7.12907 10.4162L7.34595 10.5763L7.26459 10.8333C7.25409 10.8666 7.29196 10.8942 7.32039 10.8738L7.53972 10.7171L7.75905 10.8738C7.78748 10.8942 7.8253 10.8666 7.81485 10.8333L7.73349 10.5763L7.95031 10.4162C7.97839 10.3954 7.96391 10.3508 7.92901 10.3506L7.65943 10.3486L7.57416 10.0928C7.56312 10.0597 7.51632 10.0597 7.50523 10.0928Z" fill="#F5F5F5"/>
<path d="M9.40464 10.0928L9.31937 10.3486L9.04979 10.3506C9.01488 10.3508 9.00041 10.3954 9.02848 10.4162L9.24531 10.5763L9.16395 10.8333C9.15344 10.8666 9.19132 10.8942 9.21974 10.8738L9.43908 10.7171L9.65841 10.8738C9.68683 10.8942 9.72465 10.8666 9.71421 10.8333L9.63284 10.5763L9.84967 10.4162C9.87774 10.3954 9.86327 10.3508 9.82837 10.3506L9.55878 10.3486L9.47351 10.0928C9.46248 10.0597 9.41561 10.0597 9.40464 10.0928Z" fill="#F5F5F5"/>
<path d="M11.3041 10.0928L11.2188 10.3486L10.9492 10.3506C10.9143 10.3508 10.8998 10.3954 10.9279 10.4162L11.1448 10.5763L11.0634 10.8333C11.0529 10.8666 11.0908 10.8942 11.1192 10.8738L11.3385 10.7171L11.5579 10.8738C11.5863 10.8942 11.6241 10.8666 11.6137 10.8333L11.5323 10.5763L11.7491 10.4162C11.7772 10.3954 11.7627 10.3508 11.7278 10.3506L11.4583 10.3486L11.373 10.0928C11.362 10.0597 11.3151 10.0597 11.3041 10.0928Z" fill="#F5F5F5"/>
<path d="M13.203 10.0928L13.1177 10.3486L12.8481 10.3506C12.8132 10.3508 12.7987 10.3954 12.8268 10.4162L13.0436 10.5763L12.9623 10.8333C12.9518 10.8666 12.9897 10.8942 13.0181 10.8738L13.2374 10.7171L13.4567 10.8738C13.4852 10.8942 13.523 10.8666 13.5125 10.8333L13.4312 10.5763L13.648 10.4162C13.6761 10.3954 13.6616 10.3508 13.6267 10.3506L13.3571 10.3486L13.2719 10.0928C13.2609 10.0597 13.214 10.0597 13.203 10.0928Z" fill="#F5F5F5"/>
<path d="M15.1024 10.0928L15.0171 10.3486L14.7475 10.3506C14.7126 10.3508 14.6982 10.3954 14.7262 10.4162L14.9431 10.5763L14.8618 10.8333C14.8513 10.8666 14.8891 10.8942 14.9176 10.8738L15.1369 10.7171L15.3562 10.8738C15.3846 10.8942 15.4225 10.8666 15.412 10.8333L15.3307 10.5763L15.5475 10.4162C15.5756 10.3954 15.5611 10.3508 15.5262 10.3506L15.2567 10.3486L15.1714 10.0928C15.1602 10.0597 15.1134 10.0597 15.1024 10.0928Z" fill="#F5F5F5"/>
<path d="M9.40464 8.32007L9.31937 8.57583L9.04979 8.57787C9.01488 8.5781 9.00041 8.62269 9.02848 8.64341L9.24531 8.80356L9.16395 9.0606C9.15344 9.09387 9.19132 9.12142 9.21974 9.1011L9.43908 8.94434L9.65841 9.1011C9.68683 9.12142 9.72465 9.09387 9.71421 9.0606L9.63284 8.80356L9.84967 8.64341C9.87774 8.62269 9.86327 8.5781 9.82837 8.57787L9.55878 8.57583L9.47351 8.32007C9.46248 8.28686 9.41561 8.28686 9.40464 8.32007Z" fill="#F5F5F5"/>
<path d="M11.3041 8.32007L11.2188 8.57583L10.9492 8.57787C10.9143 8.5781 10.8998 8.62269 10.9279 8.64341L11.1448 8.80356L11.0634 9.0606C11.0529 9.09387 11.0908 9.12142 11.1192 9.1011L11.3385 8.94434L11.5579 9.1011C11.5863 9.12142 11.6241 9.09387 11.6137 9.0606L11.5323 8.80356L11.7491 8.64341C11.7772 8.62269 11.7627 8.5781 11.7278 8.57787L11.4583 8.57583L11.373 8.32007C11.362 8.28686 11.3151 8.28686 11.3041 8.32007Z" fill="#F5F5F5"/>
<path d="M13.203 8.32007L13.1177 8.57583L12.8481 8.57787C12.8132 8.5781 12.7987 8.62269 12.8268 8.64341L13.0436 8.80356L12.9623 9.0606C12.9518 9.09387 12.9897 9.12142 13.0181 9.1011L13.2374 8.94434L13.4567 9.1011C13.4852 9.12142 13.523 9.09387 13.5125 9.0606L13.4312 8.80356L13.648 8.64341C13.6761 8.62269 13.6616 8.5781 13.6267 8.57787L13.3571 8.57583L13.2719 8.32007C13.2609 8.28686 13.214 8.28686 13.203 8.32007Z" fill="#F5F5F5"/>
<path d="M15.1024 8.32007L15.0171 8.57583L14.7475 8.57787C14.7126 8.5781 14.6982 8.62269 14.7262 8.64341L14.9431 8.80356L14.8618 9.0606C14.8513 9.09387 14.8891 9.12142 14.9176 9.1011L15.1369 8.94434L15.3562 9.1011C15.3846 9.12142 15.4225 9.09387 15.412 9.0606L15.3307 8.80356L15.5475 8.64341C15.5756 8.62269 15.5611 8.5781 15.5262 8.57787L15.2567 8.57583L15.1714 8.32007C15.1602 8.28686 15.1134 8.28686 15.1024 8.32007Z" fill="#F5F5F5"/>
<path d="M11.3041 10.0928L11.2188 10.3486L10.9492 10.3506C10.9143 10.3508 10.8998 10.3954 10.9279 10.4162L11.1448 10.5763L11.0634 10.8333C11.0529 10.8666 11.0908 10.8942 11.1192 10.8738L11.3385 10.7171L11.5579 10.8738C11.5863 10.8942 11.6241 10.8666 11.6137 10.8333L11.5323 10.5763L11.7491 10.4162C11.7772 10.3954 11.7627 10.3508 11.7278 10.3506L11.4583 10.3486L11.373 10.0928C11.362 10.0597 11.3151 10.0597 11.3041 10.0928Z" fill="#F5F5F5"/>
<path d="M11.3041 6.5474L11.2188 6.80315L10.9492 6.8052C10.9143 6.80543 10.8998 6.85002 10.9279 6.87074L11.1448 7.03089L11.0634 7.28793C11.0529 7.3212 11.0908 7.34874 11.1192 7.32843L11.3385 7.17167L11.5579 7.32843C11.5863 7.34874 11.6241 7.3212 11.6137 7.28793L11.5323 7.03089L11.7491 6.87074C11.7772 6.85002 11.7627 6.80543 11.7278 6.8052L11.4583 6.80315L11.373 6.5474C11.362 6.51431 11.3151 6.51431 11.3041 6.5474Z" fill="#F5F5F5"/>
<path d="M13.203 10.0928L13.1177 10.3486L12.8481 10.3506C12.8132 10.3508 12.7987 10.3954 12.8268 10.4162L13.0436 10.5763L12.9623 10.8333C12.9518 10.8666 12.9897 10.8942 13.0181 10.8738L13.2374 10.7171L13.4567 10.8738C13.4852 10.8942 13.523 10.8666 13.5125 10.8333L13.4312 10.5763L13.648 10.4162C13.6761 10.3954 13.6616 10.3508 13.6267 10.3506L13.3571 10.3486L13.2719 10.0928C13.2609 10.0597 13.214 10.0597 13.203 10.0928Z" fill="#F5F5F5"/>
<path d="M15.1024 10.0928L15.0171 10.3486L14.7475 10.3506C14.7126 10.3508 14.6982 10.3954 14.7262 10.4162L14.9431 10.5763L14.8618 10.8333C14.8513 10.8666 14.8891 10.8942 14.9176 10.8738L15.1369 10.7171L15.3562 10.8738C15.3846 10.8942 15.4225 10.8666 15.412 10.8333L15.3307 10.5763L15.5475 10.4162C15.5756 10.3954 15.5611 10.3508 15.5262 10.3506L15.2567 10.3486L15.1714 10.0928C15.1602 10.0597 15.1134 10.0597 15.1024 10.0928Z" fill="#F5F5F5"/>
<path d="M13.203 6.5474L13.1177 6.80315L12.8481 6.8052C12.8132 6.80543 12.7987 6.85002 12.8268 6.87074L13.0436 7.03089L12.9623 7.28793C12.9518 7.3212 12.9897 7.34874 13.0181 7.32843L13.2374 7.17167L13.4567 7.32843C13.4852 7.34874 13.523 7.3212 13.5125 7.28793L13.4312 7.03089L13.648 6.87074C13.6761 6.85002 13.6616 6.80543 13.6267 6.8052L13.3571 6.80315L13.2719 6.5474C13.2609 6.51431 13.214 6.51431 13.203 6.5474Z" fill="#F5F5F5"/>
<path d="M15.1024 6.5474L15.0171 6.80315L14.7475 6.8052C14.7126 6.80543 14.6982 6.85002 14.7262 6.87074L14.9431 7.03089L14.8618 7.28793C14.8513 7.3212 14.8891 7.34874 14.9176 7.32843L15.1369 7.17167L15.3562 7.32843C15.3846 7.34874 15.4225 7.3212 15.412 7.28793L15.3307 7.03089L15.5475 6.87074C15.5756 6.85002 15.5611 6.80543 15.5262 6.8052L15.2567 6.80315L15.1714 6.5474C15.1602 6.51431 15.1134 6.51431 15.1024 6.5474Z" fill="#F5F5F5"/>
</g>
<defs>
<clipPath id="clip0_0_2233">
<rect width="32" height="32" fill="white" transform="translate(0.5)"/>
</clipPath>
</defs>
</svg>
